<?xml version="1.0" standalone="no"?>
<!DOCTYPE svg PUBLIC "-//W3C//DTD SVG 1.1//EN" "http://www.w3.org/Graphics/SVG/1.1/DTD/svg11.dtd" >
<svg xmlns="http://www.w3.org/2000/svg">
<metadata>Generated by IcoMoon</metadata>
<defs>
<font id="icon-miks" horiz-adv-x="1024">
<font-face units-per-em="1024" ascent="960" descent="-64" />
<missing-glyph horiz-adv-x="1024" />
<glyph unicode="&#x20;" horiz-adv-x="512" d="" />
<glyph unicode="&#xe900;" glyph-name="icon-adderd-to-cart" d="M13.163 322.545l195.371-195.371c54.939-54.921 143.995-54.921 198.934 0l603.369 603.369c17.993 18.63 17.476 48.318-1.154 66.311-18.173 17.553-46.986 17.553-65.159 0l-603.366-603.369c-18.314-18.307-47.999-18.307-66.311 0l-195.371 195.371c-18.63 17.993-48.318 17.476-66.311-1.154-17.553-18.173-17.553-46.984-0.002-65.157v0z" />
<glyph unicode="&#xe901;" glyph-name="icon-arow-down" d="M0 616.235l406.187-405.632c27.053-26.93 64.361-43.578 105.557-43.578s78.504 16.648 105.563 43.584l-0.006-0.006 406.699 406.101-90.496 90.325-406.656-406.059c-3.86-3.859-9.193-6.246-15.083-6.246s-11.222 2.387-15.083 6.246v0l-406.187 405.589z" />
<glyph unicode="&#xe902;" glyph-name="icon-arow-left" d="M714.752-63.744l-421.248 421.248c-23.155 23.162-37.477 55.157-37.477 90.496s14.321 67.334 37.477 90.496l420.992 420.992 60.331-60.331-420.992-420.992c-7.718-7.721-12.492-18.386-12.492-30.165s4.774-22.445 12.492-30.165l421.248-421.248z" />
<glyph unicode="&#xe903;" glyph-name="icon-arow-right" d="M316.245-64l-60.245 60.245 421.589 421.589c7.718 7.721 12.492 18.386 12.492 30.165s-4.774 22.445-12.492 30.165l-420.864 420.779 60.331 60.331 420.779-420.779c23.155-23.162 37.477-55.157 37.477-90.496s-14.321-67.334-37.477-90.496v0z" />
<glyph unicode="&#xe904;" glyph-name="icon-bascet" d="M938.667 789.333h-213.333v85.333c0 47.128-38.205 85.333-85.333 85.333v0h-256c-47.128 0-85.333-38.205-85.333-85.333v0-85.333h-213.333v-85.333h85.333v-640c0-70.692 57.308-128 128-128v0h426.667c70.692 0 128 57.308 128 128v0 640h85.333zM384 874.667h256v-85.333h-256zM768 64c0-23.564-19.103-42.667-42.667-42.667v0h-426.667c-23.564 0-42.667 19.103-42.667 42.667v0 640h512zM384 533.333h85.333v-341.333h-85.333v341.333zM554.667 533.333h85.333v-341.333h-85.333v341.333z" />
<glyph unicode="&#xe905;" glyph-name="icon-bascet-light" d="M896 789.333h-132.267c-20.683 98.008-106.386 170.533-209.052 170.667h-85.348c-102.681-0.134-188.384-72.659-208.82-169.271l-0.247-1.396h-132.267c-23.564 0-42.667-19.103-42.667-42.667s19.103-42.667 42.667-42.667v0h42.667v-554.667c0.146-117.762 95.571-213.188 213.319-213.333h256.014c117.762 0.146 213.188 95.571 213.333 213.319v554.681h42.667c23.564 0 42.667 19.103 42.667 42.667s-19.103 42.667-42.667 42.667v0zM469.333 874.667h85.333c55.383-0.070 102.535-35.232 120.421-84.441l0.283-0.892h-326.741c18.169 50.102 65.321 85.264 120.695 85.333h0.009zM768 149.333c0-70.692-57.308-128-128-128v0h-256c-70.692 0-128 57.308-128 128v0 554.667h512zM426.667 192c23.564 0 42.667 19.103 42.667 42.667v0 256c0 23.564-19.103 42.667-42.667 42.667s-42.667-19.103-42.667-42.667v0-256c0-23.564 19.103-42.667 42.667-42.667v0zM597.333 192c23.564 0 42.667 19.103 42.667 42.667v0 256c0 23.564-19.103 42.667-42.667 42.667s-42.667-19.103-42.667-42.667v0-256c0-23.564 19.103-42.667 42.667-42.667v0z" />
<glyph unicode="&#xe906;" glyph-name="icon-bell" d="M992.384 268.8l-110.933 399.829c-48.056 169.476-201.406 291.545-383.268 291.545-189.143 0-347.447-132.041-387.763-308.973l-0.511-2.668-85.803-386.133c-1.933-8.334-3.041-17.904-3.041-27.733 0-70.681 57.29-127.982 127.967-128h153.9c20.459-98.177 106.272-170.881 209.067-170.881s188.608 72.703 208.824 169.494l0.242 1.387h148.053c70.667 0.033 127.942 57.328 127.942 128 0 12.148-1.692 23.901-4.854 35.036l0.219-0.902zM512 21.333c-55.186 0.236-102.107 35.359-119.868 84.442l-0.282 0.891h240.299c-18.042-49.975-64.964-85.097-120.121-85.333h-0.029zM903.040 208.853c-7.814-10.283-20.052-16.854-33.825-16.854-0.109 0-0.217 0-0.325 0.001h-719.855c-23.561 0.004-42.659 19.105-42.659 42.667 0 3.281 0.37 6.476 1.072 9.545l-0.055-0.286 85.803 386.133c32.144 140.963 156.431 244.569 304.917 244.569 142.733 0 263.107-95.734 300.412-226.495l0.537-2.203 110.933-399.829c1.040-3.496 1.638-7.512 1.638-11.669 0-9.656-3.23-18.557-8.669-25.682l0.075 0.103z" />
<glyph unicode="&#xe907;" glyph-name="icon-burger" d="M42.667 490.667h938.667c23.564 0 42.667-19.103 42.667-42.667s-19.103-42.667-42.667-42.667h-938.667c-23.564 0-42.667 19.103-42.667 42.667s19.103 42.667 42.667 42.667zM42.667 789.333h938.667c23.564 0 42.667-19.103 42.667-42.667s-19.103-42.667-42.667-42.667h-938.667c-23.564 0-42.667 19.103-42.667 42.667s19.103 42.667 42.667 42.667zM42.667 192h938.667c23.564 0 42.667-19.103 42.667-42.667s-19.103-42.667-42.667-42.667h-938.667c-23.564 0-42.667 19.103-42.667 42.667s19.103 42.667 42.667 42.667z" />
<glyph unicode="&#xe908;" glyph-name="icon-cart" d="M969.088 786.048c-23.588 28.167-58.77 45.952-98.106 45.952-0.055 0-0.11 0-0.164 0h-689.826l-1.792 14.976c-7.75 63.933-61.672 112.993-127.058 113.024h-9.475c-23.564 0-42.667-19.103-42.667-42.667s19.103-42.667 42.667-42.667v0h9.472c21.803-0.003 39.784-16.359 42.348-37.47l0.020-0.205 58.709-499.2c12.88-106.629 102.823-188.459 211.878-188.459 0.002 0 0.003 0 0.005 0h445.568c23.564 0 42.667 19.103 42.667 42.667s-19.103 42.667-42.667 42.667v0h-445.568c-55.254 0.16-102.258 35.305-120.038 84.442l-0.282 0.891h508.587c0.004 0 0.008 0 0.013 0 104.444 0 191.357 75.055 209.747 174.172l0.203 1.316 33.493 185.771c1.305 6.855 2.051 14.74 2.051 22.799 0 31.3-11.257 59.971-29.944 82.185l0.159-0.194zM913.067 696.405l-33.536-185.771c-11.152-60.264-63.302-105.301-125.971-105.301-0.068 0-0.136 0-0.204 0h-522.144l-40.149 341.333h679.765c0.076 0 0.165 0.001 0.255 0.001 23.564 0 42.667-19.103 42.667-42.667 0-2.685-0.248-5.312-0.722-7.859l0.041 0.264zM384 21.333c0-47.128-38.205-85.333-85.333-85.333s-85.333 38.205-85.333 85.333c0 47.128 38.205 85.333 85.333 85.333s85.333-38.205 85.333-85.333zM810.667 21.333c0-47.128-38.205-85.333-85.333-85.333s-85.333 38.205-85.333 85.333c0 47.128 38.205 85.333 85.333 85.333s85.333-38.205 85.333-85.333z" />
<glyph unicode="&#xe909;" glyph-name="icon-cart-add" d="M384 21.333c0-47.128-38.205-85.333-85.333-85.333s-85.333 38.205-85.333 85.333c0 47.128 38.205 85.333 85.333 85.333s85.333-38.205 85.333-85.333zM810.667 21.333c0-47.128-38.205-85.333-85.333-85.333s-85.333 38.205-85.333 85.333c0 47.128 38.205 85.333 85.333 85.333s85.333-38.205 85.333-85.333zM1010.56 902.997c-7.721 7.718-18.386 12.492-30.165 12.492s-22.445-4.774-30.165-12.492v0l-220.117-220.331-66.176 69.077c-7.776 8.081-18.683 13.101-30.763 13.101-23.565 0-42.669-19.103-42.669-42.669 0-11.486 4.538-21.911 11.919-29.582l-0.013 0.014 68.864-71.637c14.362-15.479 34.7-25.242 57.322-25.599l0.065-0.001h1.408c0.078 0 0.171 0 0.264 0 22.161 0 42.216 9.021 56.692 23.591l223.535 223.705c7.718 7.721 12.492 18.386 12.492 30.165s-4.774 22.445-12.492 30.165v0zM934.4 575.317c-2.281 0.432-4.905 0.68-7.586 0.68-20.894 0-38.28-15.018-41.952-34.849l-0.040-0.263-5.461-30.251c-11.152-60.264-63.302-105.301-125.971-105.301-0.008 0-0.016 0-0.025 0h-522.196l-40.107 341.333h278.272c23.564 0 42.667 19.103 42.667 42.667s-19.103 42.667-42.667 42.667v0h-288.341l-1.792 15.019c-7.77 63.915-61.684 112.953-127.058 112.981h-9.475c-23.564 0-42.667-19.103-42.667-42.667s19.103-42.667 42.667-42.667v0h9.472c21.803-0.003 39.784-16.359 42.348-37.47l0.020-0.205 58.709-499.2c12.88-106.629 102.823-188.459 211.878-188.459 0.002 0 0.003 0 0.005 0h445.568c23.564 0 42.667 19.103 42.667 42.667s-19.103 42.667-42.667 42.667v0h-445.568c-0.007 0-0.016 0-0.024 0-55.398 0-102.577 35.193-120.398 84.442l-0.282 0.891h508.971c0.004 0 0.008 0 0.013 0 104.444 0 191.357 75.055 209.747 174.172l0.203 1.316 5.461 30.293c0.429 2.271 0.674 4.883 0.674 7.552 0 20.876-14.993 38.251-34.799 41.943l-0.264 0.041z" />
<glyph unicode="&#xe90a;" glyph-name="icon-cart-add-bold" d="M384 21.333c0-47.128-38.205-85.333-85.333-85.333s-85.333 38.205-85.333 85.333c0 47.128 38.205 85.333 85.333 85.333s85.333-38.205 85.333-85.333zM810.667 21.333c0-47.128-38.205-85.333-85.333-85.333s-85.333 38.205-85.333 85.333c0 47.128 38.205 85.333 85.333 85.333s85.333-38.205 85.333-85.333zM772.779 320h-464.853c-7.268 0.062-13.214 5.638-13.863 12.745l-0.004 0.055-36.523 285.867h211.797v128h-228.139l-11.179 87.936c-8.572 70.946-68.412 125.391-140.97 125.397h-89.046v-128h89.045c7.268-0.062 13.214-5.638 13.863-12.745l0.004-0.055 64-501.76c8.552-70.97 68.409-125.44 140.988-125.44 0.009 0 0.017 0 0.026 0h562.473l70.4 256h-132.779zM728.277 531.541h1.707c28.16 0.072 53.645 11.468 72.154 29.871l224.464 224.464-90.539 90.496-205.653-205.696-80.64 83.968-92.288-88.747 98.133-102.4c18.327-19.314 44.028-31.475 72.573-31.956l0.088-0.001z" />
<glyph unicode="&#xe90b;" glyph-name="icon-cross-circle" d="M512 960c-282.77 0-512-229.23-512-512s229.23-512 512-512 512 229.23 512 512c-0.306 282.644-229.356 511.694-512 512zM682.666 337.622c17.338-15.958 18.458-42.95 2.5-60.288s-42.95-18.458-60.288-2.5c-0.868 0.798-1.7 1.632-2.5 2.5l-110.378 110.336-110.336-110.336c-16.95-16.37-43.96-15.9-60.33 1.050-15.968 16.534-15.968 42.746 0 59.28l110.336 110.336-110.336 110.336c-16.37 16.95-15.9 43.96 1.050 60.33 16.534 15.968 42.746 15.968 59.28 0l110.336-110.336 110.378 110.336c15.958 17.338 42.95 18.458 60.288 2.5s18.458-42.95 2.5-60.288c-0.798-0.868-1.632-1.7-2.5-2.5l-110.336-110.378 110.336-110.378z" />
<glyph unicode="&#xe90c;" glyph-name="icon-cross-circle-white" d="M682.667 618.667c-7.721 7.718-18.386 12.492-30.165 12.492s-22.445-4.774-30.165-12.492l-110.336-110.336-110.336 110.336c-7.665 7.41-18.12 11.977-29.641 11.977-23.564 0-42.667-19.103-42.667-42.667 0-11.521 4.567-21.976 11.989-29.653l110.324-110.324-110.336-110.336c-7.41-7.665-11.977-18.12-11.977-29.641 0-23.564 19.103-42.667 42.667-42.667 11.521 0 21.976 4.567 29.653 11.989l110.324 110.324 110.336-110.336c7.665-7.41 18.12-11.977 29.641-11.977 23.564 0 42.667 19.103 42.667 42.667 0 11.521-4.567 21.976-11.989 29.653l-110.324 110.324 110.336 110.336c7.718 7.721 12.492 18.386 12.492 30.165s-4.774 22.445-12.492 30.165v0zM512 960c-282.77 0-512-229.23-512-512s229.23-512 512-512c282.77 0 512 229.23 512 512v0c-0.316 282.643-229.358 511.685-511.97 512h-0.030zM512 21.333c-235.641 0-426.667 191.025-426.667 426.667s191.025 426.667 426.667 426.667c235.641 0 426.667-191.025 426.667-426.667v0c-0.267-235.534-191.133-426.4-426.641-426.667h-0.025z" />
<glyph unicode="&#xe90d;" glyph-name="icon-edit" d="M213.333 149.333h188.331l582.101 582.101c24.060 24.117 38.937 57.404 38.937 94.165s-14.877 70.048-38.94 94.168l0.003-0.003c-24.423 23.376-57.614 37.766-94.165 37.766s-69.742-14.39-94.215-37.814l0.050 0.048-582.101-582.101zM298.667 302.336l557.099 557.099c8.777 8.396 20.702 13.564 33.835 13.564s25.058-5.168 33.853-13.581l-0.018 0.017c8.643-8.666 13.988-20.626 13.988-33.835s-5.344-25.168-13.989-33.836l-557.098-557.098h-67.669zM1007.829 634.795l-69.163-69.163v-288.299h-256v-256h-597.333v810.667c0 23.564 19.103 42.667 42.667 42.667v0h501.675l69.163 69.163c5.949 5.53 12.361 10.832 19.071 15.752l0.598 0.419h-590.507c-70.692 0-128-57.308-128-128v0-896h785.664l238.336 238.336v480.128c-5.357-7.31-10.659-13.721-16.302-19.812l0.131 0.143zM768 38.997v153.003h153.003z" />
<glyph unicode="&#xe90e;" glyph-name="icon-eye" d="M1016.363 482.944v0c-37.461 81.92-184.363 349.056-504.363 349.056s-466.901-267.136-504.363-349.056c-4.819-10.268-7.632-22.299-7.632-34.987s2.813-24.719 7.848-35.503l-0.217 0.516c37.461-81.835 184.363-348.971 504.363-348.971s466.901 267.136 504.363 349.056c4.81 10.256 7.617 22.272 7.617 34.944s-2.807 24.688-7.833 35.46l0.216-0.516zM512 149.333c-269.099 0-394.667 228.949-426.667 298.197 32 70.187 157.568 299.136 426.667 299.136 268.459 0 394.069-227.968 426.667-298.667-32.597-70.699-158.208-298.667-426.667-298.667zM512 661.333c-117.821 0-213.333-95.513-213.333-213.333s95.513-213.333 213.333-213.333c117.821 0 213.333 95.513 213.333 213.333v0c-0.146 117.762-95.571 213.188-213.319 213.333h-0.014zM512 320c-70.692 0-128 57.308-128 128s57.308 128 128 128c70.692 0 128-57.308 128-128v0c0-70.692-57.308-128-128-128v0z" />
<glyph unicode="&#xe90f;" glyph-name="icon-filter" d="M597.333-64c-9.653 0-18.558 3.206-25.707 8.611l0.107-0.078-170.667 128c-10.41 7.867-17.067 20.223-17.067 34.133v0 239.787l-299.349 336.768c-25.997 29.224-41.879 67.947-41.879 110.379 0 91.863 74.44 166.34 166.289 166.4h605.872c91.816-0.111 166.205-74.568 166.205-166.4 0-42.452-15.897-81.191-42.063-110.589l0.146 0.167-299.221-336.725v-367.787c0-23.564-19.103-42.667-42.667-42.667v0zM469.333 128l85.333-64v298.667c0.009 10.897 4.102 20.837 10.831 28.372l-0.037-0.042 310.101 348.885c12.635 14.229 20.352 33.072 20.352 53.717 0 44.742-36.246 81.018-80.977 81.067h-605.871c-44.719-0.070-80.944-36.338-80.944-81.067 0-20.625 7.703-39.452 20.388-53.759l-0.073 0.084 310.144-348.928c6.674-7.496 10.752-17.43 10.752-28.318 0-0.005 0-0.009 0-0.014v0.001z" />
<glyph unicode="&#xe910;" glyph-name="icon-geolok" d="M512 704c-94.257 0-170.667-76.41-170.667-170.667s76.41-170.667 170.667-170.667c94.257 0 170.667 76.41 170.667 170.667v0c0 94.257-76.41 170.667-170.667 170.667v0zM512 448c-47.128 0-85.333 38.205-85.333 85.333s38.205 85.333 85.333 85.333c47.128 0 85.333-38.205 85.333-85.333v0c0-47.128-38.205-85.333-85.333-85.333v0zM512-64c-0.342-0.002-0.746-0.003-1.151-0.003-75.029 0-141.476 36.741-182.332 93.212l-0.453 0.657c-162.603 224.299-245.077 392.917-245.077 501.205 0 236.938 192.076 429.013 429.013 429.013s429.013-192.076 429.013-429.013v0c0-108.288-82.475-276.907-245.077-501.205-41.309-57.129-107.756-93.87-182.785-93.87-0.405 0-0.809 0.001-1.213 0.003h0.062zM512 866.944c-185.456-0.218-335.739-150.501-335.957-335.936v-0.021c0-85.76 80.768-244.352 227.371-446.549 24.678-33.708 64.105-55.351 108.587-55.351s83.909 21.644 108.323 54.975l0.263 0.377c146.603 202.197 227.371 360.789 227.371 446.549-0.218 185.456-150.501 335.739-335.936 335.957h-0.021z" />
<glyph unicode="&#xe911;" glyph-name="icon-marker" d="M510.208-64.342l-29.742 25.494c-41.002 34.332-399.016 343.526-399.016 569.694 0 236.796 191.962 428.758 428.758 428.758s428.758-191.962 428.758-428.758c0-226.17-358.014-535.364-398.846-569.864l-29.912-25.324zM510.208 866.894c-185.506-0.21-335.836-150.54-336.046-336.046 0-142.084 220.264-369.060 336.046-472.946 115.784 103.928 336.046 331.034 336.046 472.946-0.21 185.506-150.538 335.834-336.046 336.046zM510.208 360.89c-93.864 0-169.956 76.092-169.956 169.956s76.092 169.956 169.956 169.956 169.956-76.092 169.956-169.956-76.090-169.956-169.956-169.956zM510.208 615.826c-46.932 0-84.978-38.046-84.978-84.978s38.046-84.978 84.978-84.978 84.978 38.046 84.978 84.978-38.044 84.978-84.978 84.978z" />
<glyph unicode="&#xe912;" glyph-name="icon-map-marker" d="M512 448c94.257 0 170.667 76.41 170.667 170.667s-76.41 170.667-170.667 170.667c-94.257 0-170.667-76.41-170.667-170.667v0c0-94.257 76.41-170.667 170.667-170.667v0zM512 704c47.128 0 85.333-38.205 85.333-85.333s-38.205-85.333-85.333-85.333c-47.128 0-85.333 38.205-85.333 85.333v0c0 47.128 38.205 85.333 85.333 85.333v0zM682.667 20.053l341.333-83.115v447.787c-0.020 57.481-37.925 106.103-90.101 122.254l-0.907 0.242-89.6 29.867c6.263 24.401 9.885 52.426 9.941 81.287v0.036c0 188.513-152.82 341.333-341.333 341.333s-341.333-152.82-341.333-341.333v0c0.138-18.364 1.684-36.257 4.536-53.711l-0.27 1.999c-13.999 5.743-30.248 9.076-47.275 9.076-70.504 0-127.659-57.155-127.659-127.659 0-0.041 0-0.082 0-0.122v0.006-416.085l340.608-97.323zM330.965 799.403c46.194 45.557 109.672 73.692 179.721 73.692 141.385 0 256-114.615 256-256 0-69.879-27.999-133.22-73.389-179.414l0.036 0.037-181.333-177.451-181.035 177.109c-46.323 46.326-74.975 110.324-74.975 181.013s28.651 134.687 74.975 181.013v0zM85.333 448c-0.001 0.096-0.001 0.209-0.001 0.322 0 14.655 7.501 27.559 18.874 35.080l0.157 0.097c6.641 4.415 14.801 7.045 23.575 7.045 6.689 0 13.021-1.529 18.666-4.256l-0.257 0.112 61.184-22.101c17.244-33.738 38.417-62.66 63.449-87.727l-0.004 0.004 241.024-235.776 241.365 236.075c23.162 23.13 43.028 49.552 58.838 78.507l0.896 1.792 94.592-31.616c18-5.269 30.924-21.625 30.933-41.002v-339.158l-255.957 62.549-340.48-85.333-256.853 73.557z" />
<glyph unicode="&#xe913;" glyph-name="icon-info" d="M512 960c-282.77 0-512-229.23-512-512s229.23-512 512-512c282.77 0 512 229.23 512 512v0c-0.316 282.643-229.358 511.685-511.97 512h-0.030zM512 21.333c-235.641 0-426.667 191.025-426.667 426.667s191.025 426.667 426.667 426.667c235.641 0 426.667-191.025 426.667-426.667v0c-0.267-235.534-191.133-426.4-426.641-426.667h-0.025zM512 533.333h-42.667c-23.564 0-42.667-19.103-42.667-42.667s19.103-42.667 42.667-42.667v0h42.667v-256c0-23.564 19.103-42.667 42.667-42.667s42.667 19.103 42.667 42.667v0 256c0 47.128-38.205 85.333-85.333 85.333v0zM576 682.667c0-35.346-28.654-64-64-64s-64 28.654-64 64c0 35.346 28.654 64 64 64s64-28.654 64-64z" />
<glyph unicode="&#xe914;" glyph-name="icon-like-3916585" d="M746.667 920.875c-100.624-1.615-187.857-57.412-233.958-139.428l-0.709-1.372c-46.81 83.388-134.043 139.185-234.442 140.797l-0.224 0.003c-154.725-6.931-277.54-134.053-277.54-289.86 0-3.847 0.075-7.677 0.223-11.488l-0.017 0.548c0-289.067 467.456-622.933 487.339-637.099l24.661-17.451 24.661 17.451c19.883 14.080 487.339 348.032 487.339 637.099 0.131 3.263 0.206 7.093 0.206 10.94 0 155.807-122.815 282.929-276.917 289.838l-0.623 0.022zM512 70.571c-138.795 103.68-426.667 358.4-426.667 549.504-0.19 3.301-0.298 7.162-0.298 11.049 0 108.71 84.7 197.637 191.706 204.388l0.592 0.030c107.599-6.781 192.298-95.708 192.298-204.418 0-3.887-0.108-7.748-0.322-11.581l0.024 0.532h85.333c-0.19 3.301-0.298 7.162-0.298 11.049 0 108.71 84.7 197.637 191.706 204.388l0.592 0.030c107.599-6.781 192.298-95.708 192.298-204.418 0-3.887-0.108-7.748-0.322-11.581l0.024 0.532c0-191.189-287.872-445.824-426.667-549.504z" />
<glyph unicode="&#xe915;" glyph-name="icon-lk-bold" d="M768 704c0-141.385-114.615-256-256-256s-256 114.615-256 256c0 141.385 114.615 256 256 256s256-114.615 256-256zM512 362.666c-211.98-0.236-383.764-172.020-384-384 0-23.564 19.102-42.666 42.666-42.666h682.666c23.564 0 42.666 19.102 42.666 42.666-0.234 211.98-172.018 383.766-383.998 384z" />
<glyph unicode="&#xe916;" glyph-name="icon-lk-light" d="M512 448c141.385 0 256 114.615 256 256s-114.615 256-256 256c-141.385 0-256-114.615-256-256v0c0.146-141.326 114.674-255.854 255.986-256h0.014zM512 874.667c94.257 0 170.667-76.41 170.667-170.667s-76.41-170.667-170.667-170.667c-94.257 0-170.667 76.41-170.667 170.667v0c0 94.257 76.41 170.667 170.667 170.667v0zM512 362.667c-211.98-0.243-383.758-172.021-384-383.977v-0.023c0-23.564 19.103-42.667 42.667-42.667s42.667 19.103 42.667 42.667v0c0 164.949 133.718 298.667 298.667 298.667s298.667-133.718 298.667-298.667v0c0-23.564 19.103-42.667 42.667-42.667s42.667 19.103 42.667 42.667v0c-0.243 211.98-172.021 383.758-383.977 384h-0.023z" />
<glyph unicode="&#xe917;" glyph-name="icon-lk-logout" d="M384 448c141.385 0 256 114.615 256 256s-114.615 256-256 256c-141.385 0-256-114.615-256-256v0c0.146-141.326 114.674-255.854 255.986-256h0.014zM384 874.667c94.257 0 170.667-76.41 170.667-170.667s-76.41-170.667-170.667-170.667c-94.257 0-170.667 76.41-170.667 170.667v0c0 94.257 76.41 170.667 170.667 170.667v0zM768-21.333c0-23.564-19.103-42.667-42.667-42.667s-42.667 19.103-42.667 42.667v0c0 164.949-133.718 298.667-298.667 298.667s-298.667-133.718-298.667-298.667v0c0-23.564-19.103-42.667-42.667-42.667s-42.667 19.103-42.667 42.667v0c0 212.077 171.923 384 384 384s384-171.923 384-384v0zM1011.499 350.165c8.036-7.769 13.026-18.647 13.026-30.69 0-23.564-19.103-42.667-42.667-42.667-12.043 0-22.92 4.989-30.678 13.014l-76.513 76.513-76.501-76.501c-7.665-7.41-18.12-11.977-29.641-11.977-23.564 0-42.667 19.103-42.667 42.667 0 11.521 4.567 21.976 11.989 29.653l76.489 76.489-76.501 76.501c-7.41 7.665-11.977 18.12-11.977 29.641 0 23.564 19.103 42.667 42.667 42.667 11.521 0 21.976-4.567 29.653-11.989l76.489-76.489 76.501 76.501c7.665 7.41 18.12 11.977 29.641 11.977 23.564 0 42.667-19.103 42.667-42.667 0-11.521-4.567-21.976-11.989-29.653l-76.489-76.489z" />
<glyph unicode="&#xe918;" glyph-name="icon-loading" d="M554.667 917.333v-85.333c0-23.564-19.103-42.667-42.667-42.667s-42.667 19.103-42.667 42.667v0 85.333c0 23.564 19.103 42.667 42.667 42.667s42.667-19.103 42.667-42.667v0zM512 106.667c-23.564 0-42.667-19.103-42.667-42.667v0-85.333c0-23.564 19.103-42.667 42.667-42.667s42.667 19.103 42.667 42.667v0 85.333c0 23.564-19.103 42.667-42.667 42.667v0zM170.667 448c0 23.564-19.103 42.667-42.667 42.667v0h-85.333c-23.564 0-42.667-19.103-42.667-42.667s19.103-42.667 42.667-42.667v0h85.333c23.564 0 42.667 19.103 42.667 42.667v0zM981.333 490.667h-85.333c-23.564 0-42.667-19.103-42.667-42.667s19.103-42.667 42.667-42.667v0h85.333c23.564 0 42.667 19.103 42.667 42.667s-19.103 42.667-42.667 42.667v0zM768.768 890.965c-6.136 3.618-13.519 5.756-21.402 5.756-15.69 0-29.403-8.47-36.815-21.086l-0.109-0.2-42.667-73.856c-3.6-6.124-5.727-13.489-5.727-21.351 0-15.696 8.475-29.412 21.099-36.822l0.201-0.109c6.089-3.62 13.424-5.76 21.259-5.76 0.026 0 0.052 0 0.078 0h-0.004c15.709 0 29.435 8.49 36.84 21.132l0.109 0.201 42.667 73.856c3.595 6.121 5.719 13.481 5.719 21.338 0 15.675-8.453 29.376-21.050 36.793l-0.2 0.109zM340.779 152.704c-6.128 3.607-13.5 5.737-21.37 5.737-15.683 0-29.39-8.461-36.804-21.068l-0.109-0.2-42.667-73.856c-3.607-6.128-5.737-13.5-5.737-21.37 0-15.683 8.461-29.39 21.068-36.804l0.2-0.109c6.096-3.62 13.439-5.76 21.282-5.76 0.018 0 0.036 0 0.054 0h-0.003c0.012 0 0.027 0 0.042 0 15.709 0 29.436 8.49 36.841 21.132l0.109 0.201 42.667 73.856c3.589 6.116 5.708 13.47 5.708 21.319 0 15.688-8.467 29.399-21.081 36.812l-0.2 0.109zM201.173 677.504l-73.856 42.667c-5.848 3.208-12.813 5.095-20.219 5.095-23.564 0-42.667-19.103-42.667-42.667 0-15.253 8.004-28.637 20.041-36.18l0.178-0.104 73.856-42.667c5.848-3.208 12.813-5.095 20.219-5.095 23.564 0 42.667 19.103 42.667 42.667 0 15.253-8.004 28.637-20.041 36.18l-0.178 0.104zM939.307 249.557l-73.856 42.667c-5.848 3.208-12.813 5.095-20.219 5.095-23.564 0-42.667-19.103-42.667-42.667 0-15.253 8.004-28.637 20.041-36.18l0.178-0.104 73.856-42.667c6.089-3.62 13.424-5.76 21.259-5.76 0.026 0 0.052 0 0.078 0h-0.004c23.563 0.001 42.665 19.103 42.665 42.667 0 15.709-8.489 29.435-21.13 36.84l-0.201 0.109zM313.557 875.435c-7.648 12.215-21.031 20.219-36.284 20.219-23.564 0-42.667-19.103-42.667-42.667 0-7.406 1.887-14.372 5.206-20.442l-0.112 0.223 42.667-73.856c7.514-12.843 21.24-21.333 36.949-21.333v0c0.022 0 0.048 0 0.074 0 7.835 0 15.171 2.14 21.454 5.867l-0.195-0.107c12.825 7.519 21.3 21.235 21.3 36.931 0 7.862-2.126 15.227-5.836 21.552l0.109-0.201zM741.504 137.301c-7.648 12.215-21.031 20.219-36.284 20.219-23.564 0-42.667-19.103-42.667-42.667 0-7.406 1.887-14.372 5.206-20.442l-0.112 0.223 42.667-73.856c7.648-12.215 21.031-20.219 36.284-20.219 23.564 0 42.667 19.103 42.667 42.667 0 7.406-1.887 14.372-5.206 20.442l0.112-0.223zM844.245 598.101c7.855 0 15.214 2.123 21.535 5.826l-0.201-0.109 73.856 42.667c12.215 7.648 20.219 21.031 20.219 36.284 0 23.564-19.103 42.667-42.667 42.667-7.406 0-14.372-1.887-20.442-5.206l0.223 0.112-73.856-42.667c-12.801-7.524-21.258-21.228-21.258-36.907 0-23.538 19.059-42.624 42.587-42.667h0.004zM158.421 292.352l-73.856-42.667c-12.842-7.515-21.331-21.241-21.331-36.949 0-23.563 19.101-42.666 42.665-42.667v0c0.022 0 0.048 0 0.074 0 7.835 0 15.171 2.14 21.454 5.867l-0.195-0.107 73.856 42.667c12.215 7.648 20.219 21.031 20.219 36.284 0 23.564-19.103 42.667-42.667 42.667-7.406 0-14.372-1.887-20.442-5.206l0.223 0.112z" />
<glyph unicode="&#xe919;" glyph-name="icon-log-out" d="M974.12 568.662l-165.504 165.504c-16.95 16.37-43.96 15.9-60.33-1.050-15.97-16.534-15.97-42.748 0-59.282l165.504-165.504c4.918-5.014 9.214-10.602 12.8-16.64-0.64 0-1.152 0.342-1.792 0.342v0l-669.184-1.366c-23.564 0-42.666-19.102-42.666-42.666s19.102-42.666 42.666-42.666v0l668.928 1.366c1.194 0 2.176 0.598 3.328 0.682-3.784-7.218-8.584-13.856-14.25-19.712l-165.504-165.504c-16.95-16.37-17.42-43.38-1.050-60.33s43.38-17.42 60.33-1.050c0.356 0.344 0.706 0.694 1.050 1.050l165.504 165.504c66.626 66.646 66.626 174.678 0 241.322h0.17zM298.748 21.334h-85.334c-70.692 0-128 57.308-128 128v597.332c0 70.692 57.308 128 128 128h85.334c23.564 0 42.666 19.102 42.666 42.666s-19.1 42.668-42.666 42.668h-85.334c-117.76-0.142-213.19-95.572-213.332-213.334v-597.334c0.142-117.76 95.572-213.192 213.334-213.332h85.334c23.564 0 42.666 19.102 42.666 42.666s-19.102 42.668-42.668 42.668z" />
<glyph unicode="&#xe91a;" glyph-name="icon-off" d="M639.862 795.872v0c0.274-17.33 10.812-32.845 26.822-39.487 143.256-63.033 233.883-206.744 229.027-363.178-3.438-211.953-178.047-380.986-390.001-377.548s-380.988 178.047-377.548 390.001c0 0 0 0 0 0 0.202 151.923 90.003 289.426 229.027 350.684 16.017 6.682 26.548 22.221 26.822 39.571v0c0.038 23.55-19.025 42.671-42.575 42.709-5.487 0.008-10.926-1.041-16.015-3.094-237.678-103.043-346.82-379.253-243.775-616.931s379.253-346.818 616.931-243.775c237.678 103.043 346.818 379.253 243.775 616.931-47.368 109.256-134.519 196.407-243.775 243.775-21.813 8.879-46.693-1.607-55.571-23.418-2.099-5.157-3.168-10.672-3.146-16.238zM511.937 960v0c23.55 0 42.641-19.091 42.641-42.641v-255.85c0-23.55-19.091-42.641-42.641-42.641v0c-23.55 0-42.641 19.091-42.641 42.641v255.85c-0.002 23.55 19.091 42.641 42.641 42.641z" />
<glyph unicode="&#xe91b;" glyph-name="icon-phone-call" d="M554.667 917.333c0 23.564 19.103 42.667 42.667 42.667v0c235.534-0.267 426.4-191.133 426.667-426.641v-0.025c0-23.564-19.103-42.667-42.667-42.667s-42.667 19.103-42.667 42.667v0c-0.218 188.425-152.908 341.115-341.312 341.333h-0.021c-23.564 0-42.667 19.103-42.667 42.667v0zM597.333 704c94.257 0 170.667-76.41 170.667-170.667v0c0-23.564 19.103-42.667 42.667-42.667s42.667 19.103 42.667 42.667v0c-0.146 141.326-114.674 255.854-255.986 256h-0.014c-23.564 0-42.667-19.103-42.667-42.667s19.103-42.667 42.667-42.667v0zM985.301 245.803c23.858-23.923 38.611-56.937 38.611-93.397s-14.752-69.475-38.614-93.4l0.003 0.003-38.827-44.757c-349.44-334.549-1199.787 515.584-870.4 866.133l49.067 42.667c23.629 22.901 55.888 37.017 91.444 37.017 36.411 0 69.364-14.803 93.169-38.719l0.005-0.005c1.323-1.323 80.384-104.021 80.384-104.021 22.573-23.681 36.463-55.815 36.463-91.193 0-35.53-14.009-67.788-36.806-91.552l0.044 0.046-49.408-62.123c56.42-134.641 161.226-239.642 292.143-294.977l3.579-1.343 62.507 49.707c23.712 22.727 55.953 36.72 91.462 36.72 35.379 0 67.513-13.89 91.247-36.514l-0.053 0.050s102.656-79.019 103.979-80.341zM926.592 183.765s-102.101 78.549-103.424 79.872c-8.479 8.409-20.155 13.606-33.045 13.606s-24.566-5.196-33.049-13.609l0.003 0.003c-1.152-1.195-87.211-69.76-87.211-69.76-7.219-5.785-16.487-9.284-26.572-9.284-5.464 0-10.688 1.027-15.489 2.899l0.291-0.1c-174.5 66.245-309.87 201.435-374.887 371.418l-1.475 4.39c-1.982 4.748-3.134 10.264-3.134 16.050 0 10.106 3.513 19.391 9.385 26.7l-0.065-0.083s68.565 86.101 69.717 87.211c8.409 8.479 13.606 20.155 13.606 33.045s-5.196 24.566-13.609 33.049l0.003-0.003c-1.323 1.28-79.872 103.467-79.872 103.467-8.271 7.44-19.27 11.99-31.332 11.99-12.914 0-24.61-5.216-33.096-13.656l0.002 0.002-49.067-42.667c-240.725-289.451 496.171-985.472 749.824-745.771l38.869 44.8c9.44 8.762 15.327 21.238 15.327 35.089 0 12.017-4.432 22.999-11.75 31.4l0.049-0.058z" />
<glyph unicode="&#xe91c;" glyph-name="icon-phone-light" d="M639.147 660.352v170.667c0 23.564 19.103 42.667 42.667 42.667s42.667-19.103 42.667-42.667v0-111.403c26.88 27.051 200.576 201.643 225.835 226.901 7.769 8.036 18.647 13.026 30.69 13.026 23.564 0 42.667-19.103 42.667-42.667 0-12.043-4.989-22.92-13.014-30.678l-0.012-0.012c-25.259-25.259-198.059-199.040-224.768-225.835h109.269c23.564 0 42.667-19.103 42.667-42.667s-19.103-42.667-42.667-42.667v0h-170.667c-47.128 0-85.333 38.205-85.333 85.333v0zM984.533 244.821c23.858-23.923 38.611-56.937 38.611-93.397s-14.752-69.475-38.614-93.4l0.003 0.003-38.912-44.8c-349.483-334.421-1199.744 515.584-870.4 866.133l49.067 42.667c23.632 22.914 55.899 37.038 91.466 37.038 36.4 0 69.344-14.794 93.148-38.698l0.004-0.004c1.323-1.28 80.341-104.021 80.341-104.021 22.5-23.721 36.338-55.852 36.338-91.215 0-35.494-13.94-67.731-36.644-91.537l0.050 0.053-49.408-62.123c56.432-134.633 161.234-239.629 292.143-294.976l3.58-1.344 62.507 49.707c23.71 22.715 55.942 36.7 91.441 36.7 35.368 0 67.494-13.882 91.226-36.494l-0.054 0.051s102.784-79.061 104.107-80.341zM925.867 182.784s-102.101 78.592-103.424 79.872c-8.479 8.409-20.155 13.606-33.045 13.606s-24.566-5.196-33.049-13.609l0.003 0.003c-1.152-1.109-87.211-69.717-87.211-69.717-7.219-5.785-16.487-9.284-26.572-9.284-5.464 0-10.688 1.027-15.489 2.899l0.291-0.1c-174.592 66.232-310.035 201.48-375.059 371.546l-1.475 4.39c-1.982 4.748-3.134 10.264-3.134 16.050 0 10.106 3.513 19.391 9.385 26.7l-0.065-0.083s68.608 85.931 69.76 87.040c8.409 8.479 13.606 20.155 13.606 33.045s-5.196 24.566-13.609 33.049l0.003-0.003c-1.28 1.28-79.872 103.467-79.872 103.467-8.271 7.44-19.27 11.99-31.332 11.99-12.914 0-24.61-5.216-33.096-13.656l0.002 0.002-49.067-42.667c-240.725-289.408 496.213-985.472 749.781-745.941l38.912 44.843c9.528 8.764 15.477 21.292 15.477 35.209 0 12.023-4.44 23.009-11.771 31.408l0.048-0.057z" />
<glyph unicode="&#xe91d;" glyph-name="icon-search-light" d="M1011.499 8.832l-254.677 254.677c60.083 73.045 96.512 167.522 96.512 270.507 0 236.019-191.331 427.349-427.349 427.349s-427.349-191.331-427.349-427.349c0-236.019 191.331-427.349 427.349-427.349 102.985 0 197.462 36.429 271.248 97.103l-0.741-0.591 254.677-254.677c7.665-7.41 18.12-11.977 29.641-11.977 23.564 0 42.667 19.103 42.667 42.667 0 11.521-4.567 21.976-11.989 29.653l0.012-0.012zM426.667 192c-188.513 0-341.333 152.82-341.333 341.333s152.82 341.333 341.333 341.333c188.513 0 341.333-152.82 341.333-341.333v0c-0.218-188.425-152.908-341.115-341.312-341.333h-0.021z" />
<glyph unicode="&#xe91e;" glyph-name="icon-time-light" d="M1011.499 263.467c-7.721 7.718-18.386 12.492-30.165 12.492s-22.445-4.774-30.165-12.492l-240.085-240.128-114.688 113.195c-7.775 7.964-18.617 12.902-30.613 12.902-23.621 0-42.769-19.148-42.769-42.769 0-11.625 4.638-22.166 12.164-29.875l-0.008 0.009 117.077-115.2c14.373-15.464 34.704-25.22 57.318-25.599l0.069-0.001h1.408c0.078 0 0.171 0 0.264 0 22.161 0 42.216 9.021 56.692 23.591l243.503 243.545c7.718 7.721 12.492 18.386 12.492 30.165s-4.774 22.445-12.492 30.165v0zM473.173 23.083c-218.336 20.543-387.84 202.925-387.84 424.896 0 235.641 191.025 426.667 426.667 426.667 235.634 0 426.654-191.013 426.667-426.644v-0.002c0-13.099-0.64-26.069-1.749-38.869-0.118-1.189-0.185-2.569-0.185-3.965 0-22.232 17.004-40.493 38.716-42.486l0.167-0.012c1.267-0.135 2.736-0.212 4.224-0.212 22.148 0 40.311 17.063 42.059 38.761l0.010 0.149c1.365 15.488 2.091 30.976 2.091 46.635-0.015 282.759-229.239 511.974-512 511.974-282.77 0-512-229.23-512-512 0-266.396 203.451-485.273 463.451-509.728l2.042-0.155h3.883c0.567-0.027 1.231-0.042 1.899-0.042 23.587 0 42.709 19.121 42.709 42.709 0 22.92-18.054 41.623-40.717 42.663l-0.094 0.003zM469.333 661.333v-195.669l-115.499-115.499c-8.036-7.769-13.026-18.647-13.026-30.69 0-23.564 19.103-42.667 42.667-42.667 12.043 0 22.92 4.989 30.678 13.014l128.012 128.012c7.722 7.719 12.499 18.384 12.501 30.165v213.334c0 23.564-19.103 42.667-42.667 42.667s-42.667-19.103-42.667-42.667v0z" />
<glyph unicode="&#xe91f;" glyph-name="icon-time-twenty-four" d="M725.333 192c0 70.692-57.308 128-128 128s-128-57.308-128-128v0h85.333c0 23.564 19.103 42.667 42.667 42.667s42.667-19.103 42.667-42.667v0c0-21.333-36.267-48.555-68.267-72.533-48-36.011-102.4-76.8-102.4-140.8v-42.667h256v85.333h-140.373c11.563 10.069 25.131 20.224 37.973 29.867 48 36.011 102.4 76.8 102.4 140.8zM938.667 149.333h-85.333v170.667h-85.333v-170.667c0-47.128 38.205-85.333 85.333-85.333v0h85.333v-128h85.333v384h-85.333zM554.667 704h-85.333v-213.333h-170.667v-85.333h256zM938.667 874.667v-143.957c-92.961 139.124-249.377 229.514-426.905 229.514-282.652 0-511.787-229.135-511.787-511.787 0-237.251 161.437-436.797 380.454-494.779l3.57-0.804v88.149c-175.222 55.737-299.941 217.010-299.941 407.413 0 235.641 191.025 426.667 426.667 426.667 157.263 0 294.654-85.082 368.652-211.727l1.091-2.022h-155.136v-85.333h213.333c47.128 0 85.333 38.205 85.333 85.333v0 213.333z" />
<glyph unicode="&#xe920;" glyph-name="icon-truck" d="M810.667 746.667h-85.333v42.667c0 70.692-57.308 128-128 128v0h-469.333c-70.692 0-128-57.308-128-128v0-640h87.083c-1.043-6.363-1.676-13.744-1.749-21.259l-0.001-0.074c0-82.475 66.859-149.333 149.333-149.333s149.333 66.859 149.333 149.333v0c-0.073 7.59-0.707 14.971-1.861 22.178l0.112-0.845h259.499c-1.043-6.363-1.676-13.744-1.749-21.259l-0.001-0.074c0-82.475 66.859-149.333 149.333-149.333s149.333 66.859 149.333 149.333v0c-0.073 7.59-0.707 14.971-1.861 22.178l0.112-0.845h87.083v384c-0.146 117.762-95.571 213.188-213.319 213.333h-0.014zM810.667 661.333c70.692 0 128-57.308 128-128v0-42.667h-213.333v170.667zM298.667 128c0-35.346-28.654-64-64-64s-64 28.654-64 64v0c0.028 7.676 1.482 15.004 4.109 21.745l-0.141-0.412h120.064c2.486-6.329 3.94-13.657 3.968-21.321v-0.012zM640 234.667h-554.667v554.667c0 23.564 19.103 42.667 42.667 42.667v0h469.333c23.564 0 42.667-19.103 42.667-42.667v0zM853.333 128c0-35.346-28.654-64-64-64s-64 28.654-64 64v0c0.020 7.675 1.475 15.004 4.109 21.743l-0.141-0.409h120.064c2.493-6.329 3.948-13.658 3.968-21.325v-0.008zM725.333 234.667v170.667h213.333v-170.667z" />
</font>
</defs>
</svg>
